<svg id="Group_4311" data-name="Group 4311" xmlns="http://www.w3.org/2000/svg" xmlns:xlink="http://www.w3.org/1999/xlink" width="77.158" height="51.201" viewBox="0 0 77.158 51.201">
  <defs>
    <clipPath id="clip-path">
      <rect id="Rectangle_67" data-name="Rectangle 67" width="77.158" height="51.201" fill="#03ff9a"/>
    </clipPath>
  </defs>
  <g id="Group_4310" data-name="Group 4310" clip-path="url(#clip-path)">
    <path id="Path_187" data-name="Path 187" d="M106.568.054h1.464c9.435,0,18.874-.161,28.3.067A23.213,23.213,0,0,1,155.45,10.45a25.6,25.6,0,0,1,4.633,15.71A25.465,25.465,0,0,1,154.148,42.5a23.128,23.128,0,0,1-13.924,8.164,33.3,33.3,0,0,1-5.735.5c-8.581.053-17.162.025-25.742.026h-.519l-.016-.073c.576-.239,1.157-.467,1.727-.72a14.3,14.3,0,0,0,8.65-14.825c-.451-5.428-3.374-9.033-8-11.51a70.2,70.2,0,0,0-8.826-3.534,45.413,45.413,0,0,1-5.247-2.364,4.158,4.158,0,0,1-2.308-3.085A3.56,3.56,0,0,1,96.6,10.927a8.451,8.451,0,0,1,6,.03,4.156,4.156,0,0,1,2.573,2.927c.067.228.108.464.172.693a1.811,1.811,0,0,0,2.008,1.56q3.9.013,7.806,0c1.36-.007,2.063-.732,1.931-2.058-.6-5.984-3.332-10.551-8.864-13.236-.285-.138-.58-.257-.872-.381-.266-.112-.534-.218-.8-.326l.015-.082M125,39.924a1.643,1.643,0,0,0,.268.049c3.89-.031,7.793.121,11.667-.145a11.919,11.919,0,0,0,10.194-6.644,16.678,16.678,0,0,0,1.5-10.483,13.246,13.246,0,0,0-3.711-7.688,13.064,13.064,0,0,0-9.434-3.74c-3.315-.049-6.631-.011-9.947-.009-.171,0-.343.026-.539.042Z" transform="translate(-82.93 0)" fill="#03ff9a"/>
    <path id="Path_188" data-name="Path 188" d="M0,174.138V157.854c.26.687.444,1.246.678,1.783A14.589,14.589,0,0,0,7.055,166.4a55.524,55.524,0,0,0,9.206,3.832c1.819.663,3.6,1.453,5.357,2.262a4.781,4.781,0,0,1,1.43,1.141,3.353,3.353,0,0,1-1.041,5.4,10.583,10.583,0,0,1-5.652.753,12.629,12.629,0,0,1-2.728-.549,4.343,4.343,0,0,1-3.031-3.37c-.319-1.341-.833-1.731-2.216-1.731H0" transform="translate(0 -139.039)" fill="#03ff9a"/>
  </g>
</svg>
